<svg width="512" height="512" viewBox="0 0 512 512" fill="none" xmlns="http://www.w3.org/2000/svg" role="img" aria-labelledby="title desc">
  <title id="title">Sheikh Al Kar icon</title>
  <desc id="desc">A modernized Sheikh Al Kar restaurant badge with a stylized sheikh profile and keffiyeh.</desc>
  <rect x="54" y="46" width="404" height="420" rx="86" fill="#F86800"/>
  <path d="M135 128h242c22 0 40 18 40 40v128c0 31-25 56-56 56h-4c-27 0-49-22-49-49v-87H204v87c0 27-22 49-49 49h-4c-31 0-56-25-56-56V168c0-22 18-40 40-40Z" fill="#FFFFFF"/>
  <path d="M209 174h118l-21 86c-5 21 2 43 18 58l13 12H210c28-30 41-65 39-105l-40-51Z" fill="#F86800"/>
  <path d="M203 168h138l-12 46H216l-13-46Z" fill="#FF8A1F"/>
  <path d="M218 187h34l-18 11-16-11Zm53 0h34l-18 11-16-11Zm53 0h21l-11 11-10-11Z" fill="#FFFFFF"/>
  <path d="M222 223h52c3 25 0 53-9 83" stroke="#FFFFFF" stroke-width="12" stroke-linecap="round"/>
  <path d="M294 224c6 33 6 67 0 101M320 224c5 34 5 68 0 101M345 224c4 32 4 65 0 98" stroke="#FFFFFF" stroke-width="10" stroke-linecap="round"/>
  <path d="M219 224c0 35-8 61-29 84-10 11-6 27 9 31l37 10" stroke="#FFFFFF" stroke-width="12" stroke-linecap="round" stroke-linejoin="round"/>
  <path d="M220 295c21 0 30 23 13 35-12 9-32 5-36-10" stroke="#FF8A1F" stroke-width="12" stroke-linecap="round"/>
  <path d="M209 357c-8 24-20 43-39 57h153c-15-13-24-31-26-57H209Z" fill="#FFFFFF"/>
  <path d="M202 374c-7 16-16 29-28 39M220 374c-6 16-14 29-25 39M238 374c-5 16-12 29-21 39M256 374c-4 16-9 29-16 39" stroke="#F86800" stroke-width="8" stroke-linecap="round"/>
</svg>
